<?xml version="1.0" encoding="utf-8"?>
<!-- Generator: Adobe Illustrator 25.2.1, SVG Export Plug-In . SVG Version: 6.00 Build 0)  -->
<svg version="1.2" baseProfile="tiny" id="Layer_1" xmlns="http://www.w3.org/2000/svg" xmlns:xlink="http://www.w3.org/1999/xlink"
	 x="0px" y="0px" viewBox="0 0 692.35 237.434" overflow="visible" xml:space="preserve">
<path fill="#E62E2F" d="M17.725,46.15c-0.897,0.09-1.353-2.286-1.519-3.341c-0.405-2.581-0.405-4.707-0.405-5.922
	s0.516-2.9,2.632-4.556c2.328-1.822,3.999-4.707,6.58-6.682s6.125-7.086,7.188-10.427c1.063-3.341,1.62-4.961,1.62-5.872
	c0-0.86,2.632-1.721,2.835-0.81c0.336,1.512,0.304,2.328,0.202,4.049c-0.089,1.519-0.962,2.48-1.417,4.151
	c-0.456,1.67-0.202,3.898-1.114,7.39c-0.911,3.493-2.126,5.163-4.859,8.099c-2.636,2.831-4.641,4.268-6.985,7.491
	C20.054,43.062,18.232,46.099,17.725,46.15z"/>
<path fill="#E62E2F" d="M50.374,19.272c-0.86-1.114,0.253-4.657,0.962-8.099c0.605-2.936,2.126-5.467,2.43-4.961
	c0.578,0.964,2.025,4.961,3.543,6.58c2.358,2.515,11.136,13.869,14.173,15.995c1.763,1.234,3.146,2.797,4.961,2.632
	c2.227-0.202,2.439,0.62,4.454,1.923c1.721,1.114,3.538,1.372,4.151,1.923c0.506,0.456,0.083,2.267,0.304,4.252
	c0.253,2.278-1.165,4.33-1.417,4.961c-0.607,1.519-2.315,1.38-3.543,1.62c-0.894,0.175-1.168,1.103-1.822,1.822
	c-1.012,1.114-3.847,1.114-5.467,0.506c-1.484-0.556-3.399-1.027-4.151-1.215c-1.62-0.405-3.655-3.437-4.049-5.163
	c-0.81-3.543-3.644-6.884-7.188-9.921c-2.446-2.097-1.519-3.543-2.936-6.277c-1.169-2.254-2.126-2.632-2.733-4.151
	C51.401,20.094,50.374,19.272,50.374,19.272z"/>
<path fill="#0F8142" d="M185.581,46.15c-0.897,0.09-1.353-2.286-1.519-3.341c-0.405-2.581-0.405-4.707-0.405-5.922
	s0.516-2.9,2.632-4.556c2.328-1.822,3.999-4.707,6.58-6.682s6.125-7.086,7.188-10.427c1.063-3.341,1.62-4.961,1.62-5.872
	c0-0.86,2.632-1.721,2.835-0.81c0.336,1.512,0.304,2.328,0.202,4.049c-0.089,1.519-0.962,2.48-1.417,4.151
	c-0.456,1.67-0.202,3.898-1.114,7.39s-2.126,5.163-4.859,8.099c-2.636,2.831-4.641,4.268-6.985,7.491
	C187.91,43.062,186.087,46.099,185.581,46.15z"/>
<path fill="#0F8142" d="M218.23,19.272c-0.861-1.114,0.253-4.657,0.962-8.099c0.605-2.936,2.126-5.467,2.43-4.961
	c0.578,0.964,2.025,4.961,3.543,6.58c2.358,2.515,11.136,13.869,14.173,15.995c1.763,1.234,3.146,2.797,4.961,2.632
	c2.227-0.202,2.439,0.62,4.454,1.923c1.721,1.114,3.538,1.372,4.151,1.923c0.506,0.456,0.083,2.267,0.304,4.252
	c0.253,2.278-1.165,4.33-1.417,4.961c-0.607,1.519-2.315,1.38-3.543,1.62c-0.894,0.175-1.168,1.103-1.822,1.822
	c-1.012,1.114-3.847,1.114-5.467,0.506c-1.484-0.556-3.399-1.027-4.151-1.215c-1.62-0.405-3.655-3.437-4.049-5.163
	c-0.81-3.543-3.644-6.884-7.188-9.921c-2.446-2.097-1.519-3.543-2.936-6.277c-1.169-2.254-2.126-2.632-2.733-4.151
	C219.257,20.094,218.23,19.272,218.23,19.272z"/>
<path fill="#394192" d="M101.956,45.948c-0.897,0.09-1.353-2.286-1.519-3.341c-0.405-2.581-0.405-4.707-0.405-5.922
	c0-1.215,0.516-2.9,2.632-4.556c2.328-1.822,3.999-4.707,6.58-6.682s6.125-7.086,7.188-10.427c1.063-3.341,1.62-4.961,1.62-5.872
	c0-0.86,2.632-1.721,2.835-0.81c0.336,1.512,0.304,2.328,0.202,4.049c-0.089,1.519-0.962,2.48-1.417,4.151s-0.202,3.898-1.114,7.39
	s-2.126,5.163-4.859,8.099c-2.636,2.831-4.641,4.268-6.985,7.491C104.284,42.86,102.462,45.897,101.956,45.948z"/>
<path fill="#394192" d="M134.604,19.07c-0.861-1.114,0.253-4.657,0.962-8.099c0.605-2.936,2.126-5.467,2.43-4.961
	c0.578,0.964,2.025,4.961,3.543,6.58c2.358,2.515,11.136,13.869,14.173,15.995c1.763,1.234,3.146,2.797,4.961,2.632
	c2.227-0.202,2.439,0.62,4.454,1.923c1.721,1.114,3.538,1.372,4.151,1.923c0.506,0.456,0.083,2.267,0.304,4.252
	c0.253,2.278-1.165,4.33-1.417,4.961c-0.607,1.519-2.315,1.38-3.543,1.62c-0.894,0.175-1.168,1.103-1.822,1.822
	c-1.012,1.114-3.847,1.114-5.467,0.506c-1.484-0.556-3.399-1.027-4.151-1.215c-1.62-0.405-3.655-3.437-4.049-5.163
	c-0.81-3.543-3.644-6.884-7.188-9.921c-2.446-2.097-1.519-3.543-2.936-6.277c-1.169-2.254-2.126-2.632-2.733-4.151
	C135.632,19.892,134.604,19.07,134.604,19.07z"/>
<circle fill="#E62E2F" cx="50.342" cy="102.507" r="41.323"/>
<circle fill="#E62E2F" cx="50.342" cy="180.255" r="41.323"/>
<circle fill="#394192" cx="134.61" cy="102.507" r="41.323"/>
<circle fill="#394192" cx="134.61" cy="180.255" r="41.323"/>
<circle fill="#0F8142" cx="218.877" cy="102.507" r="41.323"/>
<circle fill="#0F8142" cx="218.877" cy="180.255" r="41.323"/>
<path fill="#1F1F1E" d="M309.396,66.314h57.109v4.416h-57.109V66.314z M313.16,21.674h49.707v4.419H313.16V21.674z M317.387,43.31
	h40.412v4.419h-40.412V43.31z"/>
<path fill="#1F1F1E" d="M397.193,22.129h-4.748v53.54h-3.832V62.35c-5.262,1.298-10.267,2.534-13.642,3.249
	c-0.069,0.518-0.389,0.844-0.784,0.972l-1.687-4.742c1.298-0.194,2.666-0.455,4.221-0.781V22.129h-3.958v-3.964h24.43V22.129z
	 M388.613,31.876v-9.747h-8.122v9.747H388.613z M380.49,35.643v9.879h8.122v-9.879H380.49z M380.49,49.288v11.045l8.122-1.687
	v-9.358H380.49z M413.043,24.858c-0.194,0.389-0.715,0.586-1.361,0.649c-2.402,4.485-6.109,10.788-9.421,15.596
	c2.145-0.194,4.484-0.326,6.887-0.521c-0.652-1.496-1.43-2.923-2.277-4.158l2.86-1.041c2.013,2.992,3.832,6.89,4.353,9.487
	l-2.986,1.236c-0.132-0.781-0.395-1.69-0.784-2.663c-5.068,0.583-9.941,1.038-13.19,1.364c-0.126,0.455-0.452,0.778-0.841,0.909
	l-1.367-4.158l3.638-0.26c1.499-2.013,3.055-4.547,4.616-7.147c-1.625-2.471-4.547-5.588-7.276-7.862l2.139-2.534
	c0.521,0.455,1.104,0.909,1.624,1.43c1.693-3.054,3.512-7.018,4.553-9.813l4.416,1.624c-0.194,0.389-0.652,0.521-1.367,0.521
	c-1.361,2.794-3.506,6.821-5.388,9.681c1.23,1.236,2.34,2.468,3.117,3.572c1.493-2.663,2.791-5.262,3.77-7.536L413.043,24.858z
	 M407.003,59.878c0.132-0.972,0.132-2.013,0.132-2.989V46.625l4.873,0.323c-0.069,0.392-0.395,0.715-1.173,0.847v9.161
	c0,7.279-1.236,14.1-10.525,18.845c-0.458-0.912-1.625-2.339-2.402-2.926c5.262-2.728,7.533-6.106,8.574-9.681h-5.783v3.12h-3.443
	V49.028l4.616,0.326c-0.069,0.389-0.395,0.715-1.173,0.781v9.744H407.003z M428.704,35.319c2.277,3.117,4.29,7.213,4.936,10.004
	l-3.054,1.236c-0.194-0.975-0.583-2.079-1.035-3.249l-13.065,1.364c-0.063,0.455-0.389,0.781-0.841,0.847l-1.493-4.096l3.117-0.194
	c1.43-2.013,2.986-4.482,4.547-7.016c-1.756-2.6-4.811-5.849-7.602-8.06l2.076-2.597c0.652,0.455,1.304,0.972,1.888,1.559
	c1.75-3.054,3.506-6.953,4.547-9.747l4.547,1.624c-0.257,0.389-0.715,0.586-1.43,0.586c-1.298,2.728-3.443,6.692-5.394,9.55
	c1.236,1.236,2.408,2.534,3.249,3.638c1.499-2.663,2.797-5.391,3.838-7.665l4.416,1.687c-0.194,0.392-0.715,0.586-1.43,0.652
	c-2.402,4.482-6.109,10.785-9.484,15.527l7.144-0.518c-0.715-1.43-1.493-2.794-2.339-4.03L428.704,35.319z M427.211,59.878V49.028
	l4.679,0.326c-0.069,0.389-0.326,0.715-1.173,0.781v15.982h-3.506v-2.923h-6.887v12.475h-3.707V46.494l4.936,0.326
	c-0.063,0.455-0.389,0.781-1.23,0.844v12.215H427.211z"/>
<path fill="#1F1F1E" d="M460.233,33.761c-0.132,0.583-0.583,0.844-1.43,0.909c-2.208,14.034-6.755,31.057-17.48,41.193
	c-0.778-0.909-2.465-2.468-3.506-3.183c10.267-9.421,14.489-25.86,16.308-39.894L460.233,33.761z M452.368,20.57h27.033
	c2.076,22.872,6.692,42.494,18.71,51.721c-1.23,0.778-3.117,2.339-4.158,3.443c-11.692-9.813-16.434-28.72-18.579-50.617h-23.006
	V20.57z"/>
<path fill="#1F1F1E" d="M505.793,75.603V47.34h23.589v27.679h-4.353v-2.666h-15.078v3.249H505.793z M525.03,51.562h-15.078v16.571
	h15.078V51.562z M549.912,17.582v22.872h-33.657V17.582H549.912z M545.496,36.295V21.803h-25.014v14.492H545.496z M536.333,47.34
	H560.7v27.745h-4.353v-2.794H540.56v3.249h-4.227V47.34z M540.56,68.132h15.787V51.562H540.56V68.132z"/>
<rect x="5.982" y="55.498" fill="none" stroke="#1F201E" stroke-width="2" stroke-miterlimit="10" width="257.524" height="173.017"/>
<path fill="#E62E2F" d="M323.776,113.996H310.46v-4.808h32.421v4.808h-13.385v38.985h-5.72V113.996z"/>
<path fill="#E62E2F" d="M347.76,109.771c2.86-0.583,6.956-0.909,10.851-0.909c6.046,0,9.941,1.104,12.67,3.572
	c2.214,1.951,3.443,4.939,3.443,8.317c0,5.783-3.638,9.618-8.248,11.177v0.194c3.381,1.17,5.394,4.29,6.429,8.837
	c1.43,6.109,2.471,10.33,3.381,12.021h-5.846c-0.715-1.236-1.693-5.002-2.923-10.462c-1.304-6.043-3.644-8.317-8.775-8.511h-5.325
	v18.973h-5.657V109.771z M353.417,129.72h5.783c6.04,0,9.873-3.315,9.873-8.317c0-5.654-4.09-8.122-10.073-8.188
	c-2.728,0-4.673,0.26-5.583,0.521V129.72z"/>
<path fill="#E62E2F" d="M388.384,109.188v43.793h-5.657v-43.793H388.384z"/>
<path fill="#E62E2F" d="M398.262,109.706c2.728-0.455,6.303-0.844,10.851-0.844c5.588,0,9.684,1.298,12.281,3.638
	c2.408,2.079,3.832,5.262,3.832,9.163c0,3.961-1.167,7.081-3.375,9.355c-2.992,3.183-7.865,4.808-13.385,4.808
	c-1.693,0-3.249-0.063-4.547-0.389v17.543h-5.657V109.706z M403.919,130.824c1.23,0.326,2.791,0.455,4.673,0.455
	c6.824,0,10.982-3.315,10.982-9.358c0-5.783-4.09-8.574-10.33-8.574c-2.471,0-4.353,0.194-5.325,0.455V130.824z"/>
<path fill="#E62E2F" d="M432.84,109.188h5.657v39.051h18.71v4.742H432.84V109.188z"/>
<path fill="#E62E2F" d="M486.196,132.449h-17.023v15.79h18.973v4.742h-24.63v-43.793h23.652v4.742h-17.995v13.84h17.023V132.449z"/>
<path fill="#30488E" d="M531.951,132.449h-17.023v15.79h18.973v4.742h-24.63v-43.793h23.652v4.742h-17.995v13.84h17.023V132.449z"/>
<path fill="#30488E" d="M546.903,109.188v43.793h-5.657v-43.793H546.903z"/>
<path fill="#30488E" d="M590.118,151.03c-2.534,0.912-7.539,2.405-13.454,2.405c-6.624,0-12.086-1.69-16.371-5.783
	c-3.77-3.638-6.109-9.487-6.109-16.308c0.063-13.062,9.032-22.611,23.715-22.611c5.068,0,9.032,1.104,10.914,2.013l-1.361,4.613
	c-2.34-1.041-5.262-1.885-9.684-1.885c-10.656,0-17.606,6.627-17.606,17.609c0,11.111,6.692,17.672,16.891,17.672
	c3.707,0,6.241-0.518,7.539-1.17v-13.059h-8.9v-4.547h14.426V151.03z"/>
<path fill="#30488E" d="M604.424,109.188v18.321h21.181v-18.321h5.714v43.793h-5.714v-20.532h-21.181v20.532h-5.657v-43.793H604.424
	z"/>
<path fill="#30488E" d="M649.458,113.996h-13.316v-4.808h32.421v4.808h-13.385v38.985h-5.72V113.996z"/>
<path fill="#0F8142" d="M314.681,224.086c2.534,1.562,6.235,2.86,10.136,2.86c5.783,0,9.163-3.055,9.163-7.47
	c0-4.096-2.339-6.435-8.254-8.712c-7.144-2.534-11.566-6.238-11.566-12.41c0-6.821,5.651-11.889,14.163-11.889
	c4.484,0,7.733,1.038,9.684,2.142l-1.562,4.613c-1.43-0.778-4.353-2.079-8.317-2.079c-5.977,0-8.248,3.575-8.248,6.564
	c0,4.093,2.66,6.109,8.706,8.446c7.407,2.863,11.177,6.438,11.177,12.867c0,6.761-5.005,12.607-15.335,12.607
	c-4.221,0-8.837-1.236-11.177-2.797L314.681,224.086z"/>
<path fill="#0F8142" d="M353.16,187.181v25.923c0,9.816,4.353,13.974,10.199,13.974c6.498,0,10.656-4.29,10.656-13.974v-25.923h5.72
	v25.534c0,13.454-7.087,18.973-16.571,18.973c-8.969,0-15.724-5.131-15.724-18.71v-25.797H353.16z"/>
<path fill="#0F8142" d="M389.551,187.698c2.728-0.455,6.303-0.844,10.851-0.844c5.588,0,9.684,1.298,12.281,3.638
	c2.408,2.079,3.832,5.262,3.832,9.163c0,3.961-1.167,7.081-3.375,9.358c-2.992,3.18-7.865,4.805-13.385,4.805
	c-1.693,0-3.249-0.063-4.547-0.389v17.543h-5.657V187.698z M395.208,208.82c1.23,0.326,2.791,0.452,4.673,0.452
	c6.824,0,10.982-3.315,10.982-9.358c0-5.783-4.09-8.574-10.33-8.574c-2.471,0-4.353,0.194-5.325,0.455V208.82z"/>
<path fill="#0F8142" d="M424.128,187.698c2.728-0.455,6.303-0.844,10.851-0.844c5.588,0,9.684,1.298,12.281,3.638
	c2.408,2.079,3.832,5.262,3.832,9.163c0,3.961-1.167,7.081-3.375,9.358c-2.992,3.18-7.865,4.805-13.385,4.805
	c-1.693,0-3.249-0.063-4.547-0.389v17.543h-5.657V187.698z M429.785,208.82c1.23,0.326,2.791,0.452,4.673,0.452
	c6.824,0,10.982-3.315,10.982-9.358c0-5.783-4.09-8.574-10.33-8.574c-2.471,0-4.353,0.194-5.325,0.455V208.82z"/>
<path fill="#0F8142" d="M458.706,187.181h5.657v39.051h18.71v4.742h-24.367V187.181z"/>
<path fill="#0F8142" d="M495.04,187.181v43.793h-5.657v-43.793H495.04z"/>
<path fill="#0F8142" d="M527.598,210.444h-17.023v15.787h18.973v4.742h-24.63v-43.793h23.652v4.742h-17.995v13.84h17.023V210.444z"
	/>
<path fill="#0F8142" d="M536.115,224.086c2.534,1.562,6.235,2.86,10.136,2.86c5.783,0,9.163-3.055,9.163-7.47
	c0-4.096-2.339-6.435-8.254-8.712c-7.144-2.534-11.566-6.238-11.566-12.41c0-6.821,5.651-11.889,14.163-11.889
	c4.484,0,7.734,1.038,9.684,2.142l-1.562,4.613c-1.43-0.778-4.353-2.079-8.317-2.079c-5.977,0-8.248,3.575-8.248,6.564
	c0,4.093,2.66,6.109,8.706,8.446c7.407,2.863,11.177,6.438,11.177,12.867c0,6.761-5.005,12.607-15.335,12.607
	c-4.221,0-8.837-1.236-11.177-2.797L536.115,224.086z"/>
<path fill="#1F1F1E" d="M582.716,187.181h5.657v39.051h18.71v4.742h-24.367V187.181z"/>
<path fill="#1F1F1E" d="M615.99,191.988h-13.316v-4.808h32.421v4.808H621.71v38.985h-5.72V191.988z"/>
<path fill="#1F1F1E" d="M639.974,187.764c3.443-0.521,7.539-0.909,12.023-0.909c8.122,0,13.905,1.885,17.738,5.457
	c3.895,3.575,6.172,8.643,6.172,15.724c0,7.15-2.208,12.996-6.303,17.029c-4.09,4.09-10.851,6.298-19.362,6.298
	c-4.027,0-7.407-0.194-10.267-0.515V187.764z M645.631,226.489c1.424,0.263,3.506,0.326,5.714,0.326
	c12.086,0,18.647-6.755,18.647-18.584c0.069-10.33-5.783-16.891-17.738-16.891c-2.923,0-5.131,0.257-6.624,0.583V226.489z"/>
<path fill="#1F1F1E" d="M679.494,227.599c0-2.408,1.625-4.096,3.895-4.096c2.277,0,3.832,1.687,3.832,4.096
	c0,2.339-1.493,4.09-3.895,4.09C681.049,231.688,679.494,229.938,679.494,227.599z"/>
</svg>
